#VRML V2.0 utf8
# 3D model generated by easyeda2kicad.py (https://github.com/uPesy/easyeda2kicad.py)

Shape{
    appearance Appearance {
        material  Material 	{
            diffuseColor 0.14901960784313725 0.14901960784313725 0.14901960784313725
            specularColor 0.07450980392156863 0.07450980392156863 0.07450980392156863
            ambientIntensity 0.2
            transparency 0
            shininess 0.5
        }
    }
    geometry IndexedFaceSet {
        ccw TRUE
        solid FALSE
        coord DEF co Coordinate {
            point [
                -1.1693 -0.5039 1.9685, 1.1693 -0.5039 1.9685, 0.2013 -0.1708 1.9685, 0.3129 -0.1708 1.9685, 0.2013 -0.1418 1.9685, -0.3648 -0.1418 1.9685, -0.3648 -0.1675 1.9685, 1.2217 -0.0827 1.9685, 1.5949 -0.2365 1.9685, 1.2335 -0.0543 1.9685, 1.6299 -0.1366 1.9685, 1.2375 -0.0237 1.9685, 1.6417 -0.0315 1.9685, 1.2375 0.0237 1.9685, 1.6417 0.0315 1.9685, 1.2335 0.0543 1.9685, 0.3129 -0.1418 1.9685, 1.1194 -0.1418 1.9685, 1.15 -0.1378 1.9685, 1.2744 -0.4921 1.9685, 1.1785 -0.126 1.9685, 1.3743 -0.4572 1.9685, 1.2029 -0.1072 1.9685, 1.4639 -0.4009 1.9685, 1.5387 -0.3261 1.9685, -0.5038 -0.1418 1.9685, -0.9904 -0.1418 1.9685, -0.5038 -0.1675 1.9685, -0.9904 -0.1774 1.9685, 1.1693 0.5039 1.9685, -1.1693 0.5039 1.9685, -0.1383 0.1691 1.9685, -0.2481 0.1691 1.9685, -0.1383 0.1418 1.9685, 0.4204 0.1418 1.9685, 0.4204 0.1691 1.9685, 0.5399 0.1418 1.9685, 0.9371 0.1418 1.9685, 0.5399 0.1691 1.9685, 0.9371 0.1691 1.9685, -1.2748 -0.492 1.9685, -1.0901 -0.1774 1.9685, -1.375 -0.4568 1.9685, -1.0901 -0.1418 1.9685, -1.1194 -0.1418 1.9685, -1.15 -0.1378 1.9685, -1.1785 -0.126 1.9685, -1.4648 -0.4001 1.9685, -1.2029 -0.1072 1.9685, -1.5125 -0.3562 1.9685, -1.2217 -0.0827 1.9685, -0.2481 0.1418 1.9685, -1.1194 0.1418 1.9685, -1.15 0.1378 1.9685, -1.283 0.49 1.9685, -1.1785 0.126 1.9685, -1.3901 0.4492 1.9685, -1.2029 0.1072 1.9685, -1.5063 0.3626 1.9685, -1.2217 0.0827 1.9685, -1.5798 0.2653 1.9685, -1.2335 0.0543 1.9685, -1.626 0.1524 1.9685, -1.2375 0.0237 1.9685, -1.6417 0.0315 1.9685, -1.2375 -0.0237 1.9685, -1.6417 -0.0315 1.9685, -1.2335 -0.0543 1.9685, -1.6267 -0.1495 1.9685, -1.5827 -0.2601 1.9685, 1.2744 0.4921 1.9685, 1.0889 0.1691 1.9685, 1.3743 0.4572 1.9685, 1.0889 0.1418 1.9685, 1.1194 0.1418 1.9685, 1.15 0.1378 1.9685, 1.1785 0.126 1.9685, 1.4639 0.4009 1.9685, 1.2029 0.1072 1.9685, 1.5387 0.3261 1.9685, 1.2217 0.0827 1.9685, 1.5949 0.2365 1.9685, 1.6299 0.1366 1.9685, 1.1194 0.1418 2.4803, 0.9371 0.1418 2.4409, 0.5399 0.1418 2.4409, 1.0889 0.1418 2.4409, -1.1194 0.1418 2.4803, 0.4204 0.1418 2.4409, -0.2481 0.1418 2.4409, -0.1383 0.1418 2.4409, -1.1194 -0.1418 2.4803, -0.9904 -0.1418 2.4409, -0.5038 -0.1418 2.4409, -1.0901 -0.1418 2.4409, 1.1194 -0.1418 2.4803, -0.3648 -0.1418 2.4409, 0.3129 -0.1418 2.4409, 0.2013 -0.1418 2.4409, 0.0022 0.1656 0.2362, 0.0022 0.1534 0.2362, -0.0084 0.1519 0.2362, -0.8366 -0.5532 0.2362, -0.8366 -0.3252 0.2362, -0.3937 -0.3252 0.2362, 0.081 0.1519 0.2362, 0.0931 0.1752 0.2362, 0.1157 0.1566 0.2362, 0.2081 0.2132 0.2362, 0.2005 0.2434 0.2362, 0.215 0.5039 0.2362, 0.0931 0.2499 0.2362, 0.1023 0.2428 0.2362, 0.1023 0.1822 0.2362, 0.215 0.1519 0.2362, 0.2045 0.1907 0.2362, 0.1158 0.2685 0.2362, 0.1037 0.261 0.2362, 0.081 0.5039 0.2362, 0.0968 0.2545 0.2362, 0.1714 0.256 0.2362, 0.1897 0.2395 0.2362, 0.1453 0.2625 0.2362, 0.1974 0.2171 0.2362, 0.1975 0.2124 0.2362, 0.1914 0.188 0.2362, 0.1751 0.171 0.2362, 0.152 0.1629 0.2362, 0.1712 0.1552 0.2362, 0.1827 0.1615 0.2362, 0.1803 0.2647 0.2362, 0.1498 0.2744 0.2362, 0.1446 0.2746 0.2362, 0.1212 0.1675 0.2362, 0.1215 0.2576 0.2362, 0.1445 0.1625 0.2362, 0.1326 0.2612 0.2362, 0.1404 0.2623 0.2362, 0.1894 0.1671 0.2362, 0.1932 0.1711 0.2362, 0.1385 0.1506 0.2362, 0.1445 0.1504 0.2362, 0.215 0.0811 0.2362, 0.1529 0.1519 0.2362, 0.1292 0.152 0.2362, 0.1295 0.1519 0.2362, 0.081 0.0811 0.2362, 0.0945 -0.0472 0.2362, 0.215 -0.0472 0.2362, 0.215 -0.3252 0.2362, 0.2885 -0.0472 0.2362, 0.2885 -0.3252 0.2362, 0.2885 0.0811 0.2362, 0.215 0.0118 0.2362, 0.0945 0.0118 0.2362, 0.081 -0.3252 0.2362, 0.081 -0.579 0.2362, 0.3937 -0.3252 0.2362, 0.2992 -0.0472 0.2362, 0.3937 0.0811 0.2362, 0.2992 0.0118 0.2362, 0.2885 0.0118 0.2362, -0.2712 -0.0472 0.2362, -0.1235 -0.0472 0.2362, -0.2712 -0.3252 0.2362, -0.1235 -0.3252 0.2362, -0.2992 -0.0472 0.2362, -0.2992 0.0118 0.2362, -0.3937 0.0811 0.2362, -0.2712 0.0118 0.2362, -0.2712 0.0811 0.2362, -0.1235 0.0811 0.2362, -0.0084 -0.3252 0.2362, -0.0945 -0.0472 0.2362, -0.0084 0.0811 0.2362, -0.0945 0.0118 0.2362, -0.1235 0.0118 0.2362, -1.672 -0.2092 0.2362, -1.659 -0.0315 0.2362, -1.6417 -0.0315 0.2362, -1.5461 -0.3252 0.2362, -1.2008 -0.0472 0.2362, -0.9646 -0.0472 0.2362, -0.8366 0.0811 0.2362, -0.9646 0.0118 0.2362, -1.2008 0.0118 0.2362, -0.3937 -0.5656 0.2362, -0.2712 -0.5691 0.2362, -0.1235 -0.5733 0.2362, -0.0084 -0.5765 0.2362, 0.215 -0.5828 0.2362, 0.2885 -0.5849 0.2362, 0.3937 -0.5878 0.2362, 0.8366 -0.3252 0.2362, 0.8366 -0.6003 0.2362, 0.9364 -0.6031 0.2362, 1.4304 -0.3252 0.2362, 1.4304 -0.485 0.2362, 1.6417 -0.0315 0.2362, 1.66 -0.0315 0.2362, 1.6417 0.0315 0.2362, 1.4304 0.0811 0.2362, 1.6319 0.0811 0.2362, 1.4667 -0.4763 0.2362, 1.5595 -0.3252 0.2362, 1.66 -0.1614 0.2362, 1.4304 0.1519 0.2362, 1.6178 0.1519 0.2362, 1.5034 0.3656 0.2362, 1.6058 0.2123 0.2362, 0.8366 0.1519 0.2362, 1.3501 0.468 0.2362, 1.4304 0.4143 0.2362, -1.1693 0.5039 0.2362, -0.8366 0.1519 0.2362, -1.3501 0.468 0.2362, -1.3901 0.4492 0.2362, -1.6178 0.1519 0.2362, -1.6058 0.2123 0.2362, -1.5063 0.3626 0.2362, -1.6319 0.0811 0.2362, -1.6417 0.0315 0.2362, -1.3133 -0.5397 0.2362, -0.8366 0.5039 0.2362, -0.3937 0.5039 0.2362, -0.3937 0.1519 0.2362, -0.2712 0.5039 0.2362, -0.2712 0.1519 0.2362, -0.2316 0.1534 0.2362, -0.1235 0.1519 0.2362, -0.2141 0.1913 0.2362, -0.1606 0.1913 0.2362, -0.1426 0.1534 0.2362, -0.131 0.1534 0.2362, -0.1235 0.5039 0.2362, -0.1871 0.2716 0.2362, -0.1886 0.2716 0.2362, -0.2431 0.1534 0.2362, -0.0803 0.2673 0.2362, -0.1016 0.253 0.2362, -0.0921 0.1617 0.2362, -0.0683 0.1541 0.2362, -0.0556 0.1534 0.2362, -0.1137 0.2296 0.2362, -0.1159 0.211 0.2362, -0.1092 0.1813 0.2362, -0.019 0.1534 0.2362, -0.019 0.2716 0.2362, -0.0084 0.5039 0.2362, -0.0428 0.2716 0.2362, -0.0618 0.2708 0.2362, 0.0688 0.1534 0.2362, 0.0688 0.2716 0.2362, 0.0022 0.2594 0.2362, 0.0022 0.2716 0.2362, 0.0022 0.211 0.2362, 0.0582 0.211 0.2362, 0.0582 0.1656 0.2362, 0.0022 0.2231 0.2362, 0.0582 0.2231 0.2362, 0.0582 0.2594 0.2362, 0.2778 0.2716 0.2362, 0.2885 0.1519 0.2362, 0.2778 0.1534 0.2362, 0.2218 0.1534 0.2362, 0.2218 0.1656 0.2362, 0.2672 0.1656 0.2362, 0.2672 0.2716 0.2362, 0.2885 0.5039 0.2362, 0.3937 0.5039 0.2362, 0.3937 0.1519 0.2362, 0.8366 0.5039 0.2362, 1.1693 0.5039 0.2362, 0.8366 0.0811 0.2362, -0.4882 0.0118 0.2362, -0.4882 -0.0472 0.2362, -0.7087 -0.0472 0.2362, -0.7087 0.0118 0.2362, 0.7087 0.0118 0.2362, 0.7087 -0.0472 0.2362, 0.4882 -0.0472 0.2362, 0.4882 0.0118 0.2362, 1.2008 -0.0472 0.2362, 0.9646 -0.0472 0.2362, 0.9646 0.0118 0.2362, 1.2008 0.0118 0.2362, 1.2008 0.0118 0.2362
            ]
        }
        coordIndex [
            0,1,2,-1,2,1,3,-1,4,5,2,-1,2,5,6,-1,2,6,0,-1,7,8,9,-1,9,8,10,-1,9,10,11,-1,11,10,12,-1,11,12,13,-1,13,12,14,-1,13,14,15,-1,16,3,17,-1,17,3,1,-1,17,1,18,-1,18,1,19,-1,18,19,20,-1,20,19,21,-1,20,21,22,-1,22,21,23,-1,22,23,7,-1,7,23,24,-1,7,24,8,-1,25,26,27,-1,27,26,28,-1,29,30,31,-1,31,30,32,-1,33,34,31,-1,31,34,35,-1,31,35,29,-1,36,37,38,-1,38,37,39,-1,6,27,0,-1,0,27,28,-1,0,28,40,-1,40,28,41,-1,40,41,42,-1,42,41,43,-1,42,43,44,-1,44,45,42,-1,42,45,46,-1,42,46,47,-1,47,46,48,-1,47,48,49,-1,49,48,50,-1,51,32,52,-1,52,32,30,-1,52,30,53,-1,53,30,54,-1,53,54,55,-1,55,54,56,-1,55,56,57,-1,57,56,58,-1,57,58,59,-1,59,58,60,-1,59,60,61,-1,61,60,62,-1,61,62,63,-1,63,62,64,-1,63,64,65,-1,65,64,66,-1,65,66,67,-1,67,66,68,-1,67,68,50,-1,50,68,69,-1,50,69,49,-1,35,38,29,-1,29,38,39,-1,29,39,70,-1,70,39,71,-1,70,71,72,-1,72,71,73,-1,72,73,74,-1,74,75,72,-1,72,75,76,-1,72,76,77,-1,77,76,78,-1,77,78,79,-1,79,78,80,-1,79,80,81,-1,81,80,15,-1,81,15,82,-1,82,15,14,-1,83,74,73,-1,37,36,84,-1,84,36,85,-1,73,86,83,-1,83,86,84,-1,83,84,87,-1,87,84,85,-1,87,85,88,-1,51,52,89,-1,89,52,87,-1,89,87,90,-1,90,87,88,-1,90,88,33,-1,33,88,34,-1,91,44,43,-1,26,25,92,-1,92,25,93,-1,43,94,91,-1,91,94,92,-1,91,92,95,-1,95,92,93,-1,95,93,96,-1,16,17,97,-1,97,17,95,-1,97,95,98,-1,98,95,96,-1,98,96,4,-1,4,96,5,-1,99,100,101,-1,102,103,104,-1,105,106,107,-1,108,109,110,-1,111,112,113,-1,114,115,108,-1,116,117,118,-1,118,117,119,-1,118,119,111,-1,120,121,122,-1,122,121,123,-1,122,123,124,-1,124,125,122,-1,122,125,126,-1,122,126,127,-1,114,128,129,-1,109,130,110,-1,110,130,131,-1,110,131,118,-1,118,131,132,-1,118,132,116,-1,113,112,133,-1,133,112,134,-1,133,134,135,-1,135,134,136,-1,135,136,127,-1,127,136,137,-1,127,137,122,-1,129,138,114,-1,114,138,139,-1,114,139,115,-1,140,141,142,-1,142,141,143,-1,107,144,105,-1,105,144,145,-1,105,145,146,-1,147,148,149,-1,149,148,150,-1,149,150,151,-1,152,153,142,-1,142,153,146,-1,142,146,140,-1,140,146,145,-1,153,154,146,-1,146,154,147,-1,146,147,155,-1,155,147,149,-1,155,149,156,-1,151,150,157,-1,157,150,158,-1,157,158,159,-1,159,158,160,-1,159,160,152,-1,152,160,161,-1,152,161,153,-1,162,163,164,-1,164,163,165,-1,162,164,166,-1,166,164,104,-1,166,104,167,-1,167,104,168,-1,167,168,169,-1,169,168,170,-1,169,170,171,-1,165,163,172,-1,172,163,173,-1,172,173,174,-1,174,173,175,-1,174,175,171,-1,171,175,176,-1,171,176,169,-1,177,178,179,-1,177,179,180,-1,181,182,103,-1,103,182,183,-1,183,182,184,-1,183,184,185,-1,102,104,186,-1,186,104,164,-1,186,164,187,-1,187,164,165,-1,187,165,188,-1,188,165,172,-1,188,172,189,-1,156,149,190,-1,190,149,151,-1,190,151,191,-1,191,151,157,-1,191,157,192,-1,192,157,193,-1,192,193,194,-1,194,193,195,-1,195,193,196,-1,195,196,197,-1,196,198,199,-1,198,196,200,-1,200,196,201,-1,200,201,202,-1,203,197,204,-1,204,197,196,-1,204,196,205,-1,205,196,199,-1,202,206,207,-1,207,206,208,-1,207,208,209,-1,210,211,206,-1,206,211,212,-1,206,212,208,-1,213,214,215,-1,215,214,216,-1,217,218,214,-1,214,218,219,-1,214,219,216,-1,217,183,220,-1,220,183,185,-1,220,185,221,-1,221,185,181,-1,221,181,179,-1,179,181,103,-1,179,103,180,-1,180,103,102,-1,180,102,222,-1,213,223,214,-1,214,223,224,-1,214,224,225,-1,225,224,226,-1,225,226,227,-1,228,229,227,-1,230,231,228,-1,228,231,232,-1,228,232,229,-1,229,232,233,-1,229,233,234,-1,234,233,235,-1,234,235,226,-1,226,235,236,-1,226,236,227,-1,227,236,237,-1,227,237,228,-1,238,239,234,-1,240,241,229,-1,229,241,242,-1,229,242,101,-1,239,243,234,-1,234,243,244,-1,234,244,229,-1,229,244,245,-1,229,245,240,-1,242,246,101,-1,101,246,247,-1,101,247,248,-1,248,247,249,-1,248,249,234,-1,234,249,250,-1,234,250,238,-1,105,251,252,-1,253,101,254,-1,254,101,248,-1,254,248,252,-1,252,248,118,-1,252,118,105,-1,105,118,111,-1,105,111,106,-1,106,111,113,-1,255,256,257,-1,257,99,255,-1,255,99,101,-1,255,101,258,-1,258,101,253,-1,258,253,259,-1,259,253,260,-1,261,262,263,-1,263,262,114,-1,263,114,264,-1,108,110,114,-1,114,110,265,-1,114,265,264,-1,266,265,267,-1,267,265,110,-1,267,110,261,-1,261,110,268,-1,261,268,262,-1,262,268,269,-1,262,269,270,-1,270,269,271,-1,270,271,210,-1,210,271,272,-1,210,272,211,-1,217,214,183,-1,183,214,225,-1,183,225,168,-1,168,225,227,-1,168,227,170,-1,170,227,229,-1,170,229,171,-1,171,229,101,-1,171,101,174,-1,202,201,206,-1,206,201,273,-1,206,273,210,-1,210,273,159,-1,210,159,270,-1,270,159,152,-1,270,152,262,-1,262,152,142,-1,262,142,114,-1,114,142,143,-1,114,143,128,-1,274,168,275,-1,275,168,104,-1,275,104,276,-1,276,104,103,-1,276,103,277,-1,277,103,183,-1,277,183,274,-1,274,183,168,-1,100,251,101,-1,101,251,105,-1,101,105,174,-1,174,105,146,-1,174,146,172,-1,172,146,155,-1,172,155,189,-1,189,155,156,-1,278,273,279,-1,279,273,193,-1,279,193,280,-1,280,193,157,-1,280,157,281,-1,281,157,159,-1,281,159,278,-1,278,159,273,-1,282,196,283,-1,283,196,193,-1,283,193,284,-1,284,193,273,-1,284,273,285,-1,285,273,201,-1,285,201,282,-1,282,201,196,-1,
        ]
    }
}
Shape{
    appearance Appearance {
        material  Material 	{
            diffuseColor 0.796078431372549 0.8235294117647058 0.9372549019607843
            specularColor 0.396078431372549 0.4117647058823529 0.4666666666666667
            ambientIntensity 0.2
            transparency 0
            shininess 0.5
        }
    }
    geometry IndexedFaceSet {
        ccw TRUE
        solid FALSE
        coord DEF co Coordinate {
            point [
                1.6417 -0.0315 1.9685, 1.6417 -0.0315 2.6772, 1.6417 0.0315 1.9685, 1.6417 0.0315 2.6772, 1.6417 -0.315 0.3296, 1.6417 -0.315 0.3543, 1.6417 -0.1912 0.3296, 1.6417 -0.1912 0.3543, -1.6417 0.0315 1.9685, -1.6417 0.0315 2.6772, -1.6417 -0.0315 1.9685, -1.6417 -0.0315 2.6772, -1.6417 -0.315 0.3543, -1.6417 -0.315 0.3296, -1.6417 -0.2371 0.3543, -1.6417 -0.2371 0.3296, 1.6058 -0.2123 2.6772, 1.6058 -0.2123 1.9685, 1.5034 -0.3656 2.6772, 1.5034 -0.3656 1.9685, 1.3501 -0.468 2.6772, 1.3501 -0.468 1.9685, 1.1693 -0.5039 2.6772, 1.1693 -0.5039 1.9685, 1.1693 0.5039 2.6772, 1.1693 0.5039 1.9685, 1.3501 0.468 2.6772, 1.3501 0.468 1.9685, 1.5034 0.3656 2.6772, 1.5034 0.3656 1.9685, 1.6058 0.2123 2.6772, 1.6058 0.2123 1.9685, -1.1693 0.5039 1.9685, -1.1693 0.5039 2.6772, -1.1693 0.5039 0.0, -1.1693 0.5039 0.2362, -1.3501 0.468 0.0, -1.3501 0.468 0.2362, -1.5034 0.3656 0.0, -1.3901 0.4492 0.2362, -1.3901 0.4492 1.9685, -1.6058 0.2123 0.2362, -1.6058 0.2123 0.0, -1.5063 0.3626 0.2362, -1.6417 0.0315 -0.3543, -1.6394 0.0787 -0.3543, -1.6394 0.0787 0.0, -1.6178 0.1519 0.2362, -1.6319 0.0811 0.2362, -1.6417 0.0315 0.2362, -1.6058 0.2123 2.6772, -1.6058 0.2123 1.9685, -1.5034 0.3656 2.6772, -1.5063 0.3626 1.9685, -1.3501 0.468 1.9685, -1.3501 0.468 2.6772, -1.1693 -0.5039 1.9685, -1.1693 -0.5039 2.6772, 1.7579 0.0787 0.0, 1.6394 0.0787 0.0, 1.7309 0.214 0.0, 1.6058 0.2123 0.0, 1.6471 0.3786 0.0, 1.5034 0.3656 0.0, 0.7263 0.5039 0.0, 0.7263 0.622 0.0, 1.1693 0.5039 0.0, 1.1693 0.622 0.0, 1.3501 0.468 0.0, 1.3518 0.5931 0.0, 1.5164 0.5093 0.0, -0.7263 0.622 0.0, -0.7263 0.5039 0.0, -1.1693 0.622 0.0, -1.3518 0.5931 0.0, -1.5164 0.5093 0.0, -1.7579 0.0787 0.0, -1.7309 0.214 0.0, -1.6471 0.3786 0.0, -1.7598 -0.0315 2.6772, -1.7598 -0.0315 0.3296, -1.7309 -0.214 0.3296, -1.7309 -0.214 2.6772, -1.6471 -0.3786 0.3296, -1.6471 -0.3786 2.6772, -1.5164 -0.5093 0.3296, -1.5164 -0.5093 2.6772, -1.3518 -0.5931 0.3296, -1.3518 -0.5931 2.6772, -1.1693 -0.622 0.3296, -1.1693 -0.622 2.6772, 1.1693 -0.622 2.6772, 1.1693 -0.622 0.3296, 1.3518 -0.5931 0.3296, 1.3518 -0.5931 2.6772, 1.5164 -0.5093 0.3296, 1.5164 -0.5093 2.6772, 1.6471 -0.3786 0.3296, 1.6471 -0.3786 2.6772, 1.7309 -0.214 0.3296, 1.7309 -0.214 2.6772, 1.7598 -0.0315 0.3296, 1.7598 -0.0315 2.6772, 1.6417 -0.0315 0.2362, 1.6417 0.0315 0.2362, 1.6417 -0.0315 0.2157, 1.6417 -0.1326 0.109, 1.6417 -0.315 0.2157, 1.6417 -0.21 -0.1631, 1.6417 -0.2014 -0.1759, 1.6417 -0.315 -0.3543, 1.6417 -0.0962 0.0847, 1.6417 -0.1048 0.0974, 1.6417 -0.1175 0.106, 1.6417 -0.1736 0.109, 1.6417 -0.1887 0.106, 1.6417 -0.2014 0.0974, 1.6417 0.0315 -0.3543, 1.6417 -0.1175 -0.1844, 1.6417 -0.1048 -0.1759, 1.6417 -0.1887 -0.1844, 1.6417 -0.1736 -0.1874, 1.6417 -0.1326 -0.1874, 1.6417 -0.0962 -0.1631, 1.6417 -0.0932 -0.1481, 1.6417 -0.0932 0.0696, 1.6417 -0.21 0.0847, 1.6417 -0.213 0.0696, 1.6417 -0.213 -0.1481, -1.6417 -0.0315 0.2362, -1.6417 -0.0315 0.2157, -1.6417 -0.1887 -0.1844, -1.6417 -0.2014 -0.1759, -1.6417 -0.315 -0.3543, -1.6417 -0.315 0.2157, -1.6417 -0.21 0.0847, -1.6417 -0.2014 0.0974, -1.6417 -0.1887 0.106, -1.6417 -0.1736 0.109, -1.6417 -0.1326 -0.1874, -1.6417 -0.1736 -0.1874, -1.6417 -0.1326 0.109, -1.6417 -0.1175 0.106, -1.6417 -0.1048 0.0974, -1.6417 -0.0962 -0.1631, -1.6417 -0.1048 -0.1759, -1.6417 -0.1175 -0.1844, -1.6417 -0.21 -0.1631, -1.6417 -0.213 -0.1481, -1.6417 -0.213 0.0696, -1.6417 -0.0962 0.0847, -1.6417 -0.0932 0.0696, -1.6417 -0.0932 -0.1481, -1.7598 -0.315 -0.3543, -1.7598 -0.315 0.2157, 1.7598 -0.315 -0.3543, 1.7598 -0.315 0.2157, -0.3621 0.5039 0.0, -0.3621 0.622 0.0, 0.3621 0.5039 0.0, 0.3621 0.622 0.0, 1.7598 0.0315 2.6772, 1.7309 0.214 2.6772, -1.5034 -0.3656 2.6772, -1.3501 -0.468 2.6772, 1.6471 0.3786 2.6772, 1.5164 0.5093 2.6772, 1.3518 0.5931 2.6772, 1.1693 0.622 2.6772, -1.1693 0.622 2.6772, -1.3518 0.5931 2.6772, -1.5164 0.5093 2.6772, -1.6471 0.3786 2.6772, -1.7309 0.214 2.6772, -1.7598 0.0315 2.6772, -1.6058 -0.2123 2.6772, 1.7598 -0.1887 -0.1844, 1.7598 -0.2014 -0.1759, 1.7598 -0.0315 0.2157, 1.7598 0.0315 -0.3543, 1.7598 -0.21 0.0847, 1.7598 -0.2014 0.0974, 1.7598 -0.1887 0.106, 1.7598 -0.1736 0.109, 1.7598 -0.1326 -0.1874, 1.7598 -0.1736 -0.1874, 1.7598 -0.1326 0.109, 1.7598 -0.1175 0.106, 1.7598 -0.1048 0.0974, 1.7598 -0.0962 -0.1631, 1.7598 -0.1048 -0.1759, 1.7598 -0.1175 -0.1844, 1.7598 -0.21 -0.1631, 1.7598 -0.213 -0.1481, 1.7598 -0.213 0.0696, 1.7598 -0.0962 0.0847, 1.7598 -0.0932 0.0696, 1.7598 -0.0932 -0.1481, 1.7579 0.0787 -0.3543, 0.7263 0.622 0.213, -0.7263 0.622 0.213, -0.4331 0.622 0.5284, -0.6597 0.622 0.5284, -0.6597 0.622 0.3995, -0.3621 0.622 0.213, 0.3621 0.622 0.213, 0.4331 0.622 0.5284, 0.4331 0.622 0.3995, -0.4331 0.622 0.3995, 0.6597 0.622 0.5284, 0.6597 0.622 0.3995, -1.7579 0.0787 -0.3543, -1.7598 0.0315 -0.3543, -1.7598 -0.0315 0.2157, -1.7598 -0.1326 0.109, -1.7598 -0.21 -0.1631, -1.7598 -0.2014 -0.1759, -1.7598 -0.1736 0.109, -1.7598 -0.1887 0.106, -1.7598 -0.2014 0.0974, -1.7598 -0.0962 0.0847, -1.7598 -0.1048 0.0974, -1.7598 -0.1175 0.106, -1.7598 -0.1175 -0.1844, -1.7598 -0.1048 -0.1759, -1.7598 -0.21 0.0847, -1.7598 -0.213 0.0696, -1.7598 -0.213 -0.1481, -1.7598 -0.1887 -0.1844, -1.7598 -0.1736 -0.1874, -1.7598 -0.1326 -0.1874, -1.7598 -0.0962 -0.1631, -1.7598 -0.0932 -0.1481, -1.7598 -0.0932 0.0696, 1.6319 0.0811 0.2362, 1.6394 0.0787 -0.3543, 1.6178 0.1519 0.2362, 1.6058 0.2123 0.2362, 1.1693 0.5039 0.2362, 1.3501 0.468 0.2362, 1.4304 0.4143 0.2362, 1.5034 0.3656 0.2362, -0.8366 0.5039 0.2362, 0.3621 0.5039 0.213, 0.2885 0.5039 0.2362, 0.8366 0.5039 0.2362, 0.3937 0.5039 0.2362, 0.7263 0.5039 0.213, 0.215 0.5039 0.2362, 0.081 0.5039 0.2362, -0.0084 0.5039 0.2362, -0.1235 0.5039 0.2362, -0.2712 0.5039 0.2362, -0.3621 0.5039 0.213, -0.3937 0.5039 0.2362, -0.7263 0.5039 0.213, -1.3501 -0.468 1.9685, -1.4648 -0.4001 1.9685, -1.5034 -0.3656 0.3296, -1.5125 -0.3562 0.3296, -1.5125 -0.3562 1.9685, -1.6058 -0.2123 1.9685, -1.4648 -0.4001 0.3296, 1.4667 -0.4763 0.3296, -1.659 -0.0315 0.3296, -1.672 -0.2092 0.3296, 1.66 -0.1614 0.3296, 1.5658 -0.315 0.3296, 1.66 -0.0315 0.3296, -1.5572 -0.315 0.3296, -1.3133 -0.5397 0.3296, 0.9364 -0.6031 0.3296, 0.9364 -0.6031 0.3296
            ]
        }
        coordIndex [
            0,1,2,-1,2,1,3,-1,4,5,6,-1,6,5,7,-1,8,9,10,-1,10,9,11,-1,12,13,14,-1,14,13,15,-1,1,0,16,-1,16,0,17,-1,16,17,18,-1,18,17,19,-1,18,19,20,-1,20,19,21,-1,20,21,22,-1,22,21,23,-1,24,25,26,-1,26,25,27,-1,26,27,28,-1,28,27,29,-1,28,29,30,-1,30,29,31,-1,30,31,3,-1,3,31,2,-1,25,24,32,-1,32,24,33,-1,34,35,36,-1,36,35,37,-1,36,37,38,-1,38,37,39,-1,38,39,40,-1,41,42,43,-1,43,42,38,-1,44,45,46,-1,41,47,42,-1,42,47,48,-1,42,48,46,-1,46,48,49,-1,46,49,44,-1,9,8,50,-1,50,8,51,-1,50,51,52,-1,52,51,53,-1,32,33,54,-1,54,33,55,-1,54,55,40,-1,40,55,52,-1,40,52,38,-1,38,52,53,-1,38,53,43,-1,56,57,23,-1,23,57,22,-1,58,59,60,-1,60,59,61,-1,60,61,62,-1,62,61,63,-1,64,65,66,-1,66,65,67,-1,66,67,68,-1,68,67,69,-1,68,69,63,-1,63,69,70,-1,63,70,62,-1,71,72,73,-1,73,72,34,-1,73,34,74,-1,74,34,36,-1,74,36,75,-1,75,36,38,-1,46,76,42,-1,42,76,77,-1,42,77,38,-1,38,77,78,-1,38,78,75,-1,79,80,81,-1,79,81,82,-1,82,81,83,-1,82,83,84,-1,84,83,85,-1,84,85,86,-1,86,85,87,-1,86,87,88,-1,88,87,89,-1,88,89,90,-1,91,92,93,-1,91,93,94,-1,94,93,95,-1,94,95,96,-1,96,95,97,-1,96,97,98,-1,98,97,99,-1,98,99,100,-1,100,99,101,-1,100,101,102,-1,103,104,105,-1,105,104,106,-1,105,106,107,-1,108,109,110,-1,111,112,104,-1,104,112,113,-1,104,113,106,-1,106,114,107,-1,107,114,115,-1,107,115,116,-1,117,118,119,-1,109,120,110,-1,110,120,121,-1,110,121,117,-1,117,121,122,-1,117,122,118,-1,119,123,117,-1,117,123,124,-1,117,124,104,-1,104,124,125,-1,104,125,111,-1,116,126,107,-1,107,126,127,-1,107,127,110,-1,110,127,128,-1,110,128,108,-1,49,129,130,-1,131,132,133,-1,134,135,136,-1,134,136,130,-1,130,136,137,-1,130,137,138,-1,44,139,133,-1,133,139,140,-1,133,140,131,-1,138,141,130,-1,130,141,142,-1,130,142,49,-1,49,142,143,-1,144,145,44,-1,44,145,146,-1,44,146,139,-1,132,147,133,-1,133,147,148,-1,133,148,134,-1,134,148,149,-1,134,149,135,-1,143,150,49,-1,49,150,151,-1,49,151,44,-1,44,151,152,-1,44,152,144,-1,153,133,154,-1,154,133,134,-1,110,155,107,-1,107,155,156,-1,157,158,159,-1,159,158,160,-1,18,98,16,-1,16,98,100,-1,16,100,1,-1,1,100,102,-1,1,102,3,-1,3,102,161,-1,3,161,30,-1,30,161,162,-1,30,162,28,-1,163,86,164,-1,164,86,88,-1,164,88,57,-1,57,88,90,-1,57,90,22,-1,22,90,91,-1,22,91,20,-1,20,91,94,-1,20,94,18,-1,18,94,96,-1,18,96,98,-1,162,165,28,-1,28,165,166,-1,28,166,26,-1,26,166,167,-1,26,167,24,-1,24,167,168,-1,24,168,33,-1,33,168,169,-1,33,169,55,-1,55,169,170,-1,55,170,52,-1,170,171,52,-1,52,171,172,-1,52,172,50,-1,50,172,173,-1,50,173,9,-1,9,173,174,-1,9,174,11,-1,11,174,79,-1,11,79,175,-1,175,79,82,-1,175,82,163,-1,163,82,84,-1,163,84,86,-1,92,91,89,-1,89,91,90,-1,176,177,155,-1,178,179,101,-1,101,179,161,-1,101,161,102,-1,156,180,181,-1,156,181,178,-1,178,181,182,-1,178,182,183,-1,179,184,155,-1,155,184,185,-1,155,185,176,-1,183,186,178,-1,178,186,187,-1,178,187,188,-1,189,190,179,-1,179,190,191,-1,179,191,184,-1,177,192,155,-1,155,192,193,-1,155,193,156,-1,156,193,194,-1,156,194,180,-1,188,195,178,-1,178,195,196,-1,178,196,179,-1,179,196,197,-1,179,197,189,-1,67,168,167,-1,67,167,69,-1,69,167,166,-1,69,166,70,-1,70,166,165,-1,70,165,62,-1,62,165,162,-1,62,162,60,-1,179,198,58,-1,60,162,58,-1,58,162,161,-1,58,161,179,-1,67,65,199,-1,71,73,200,-1,200,73,169,-1,168,201,169,-1,169,201,202,-1,169,202,200,-1,200,202,203,-1,200,203,204,-1,204,203,205,-1,204,205,158,-1,158,205,160,-1,206,207,208,-1,208,201,206,-1,206,201,168,-1,206,168,209,-1,209,168,67,-1,209,67,210,-1,210,67,199,-1,210,199,207,-1,207,199,205,-1,207,205,208,-1,208,205,203,-1,211,212,76,-1,76,212,174,-1,76,174,77,-1,174,173,77,-1,77,173,172,-1,77,172,78,-1,78,172,171,-1,78,171,75,-1,75,171,170,-1,75,170,74,-1,74,170,169,-1,74,169,73,-1,79,174,80,-1,80,174,212,-1,80,212,213,-1,154,213,214,-1,215,216,153,-1,214,217,154,-1,154,217,218,-1,154,218,219,-1,220,221,213,-1,213,221,222,-1,213,222,214,-1,212,223,224,-1,219,225,154,-1,154,225,226,-1,154,226,153,-1,153,226,227,-1,153,227,215,-1,216,228,153,-1,153,228,229,-1,153,229,212,-1,212,229,230,-1,212,230,223,-1,224,231,212,-1,212,231,232,-1,212,232,213,-1,213,232,233,-1,213,233,220,-1,61,59,234,-1,235,117,59,-1,59,117,104,-1,59,104,234,-1,234,236,61,-1,61,236,237,-1,61,237,63,-1,238,66,239,-1,239,66,68,-1,239,68,240,-1,240,68,63,-1,240,63,241,-1,241,63,237,-1,242,35,34,-1,159,243,244,-1,66,238,245,-1,244,243,246,-1,246,243,247,-1,246,247,245,-1,245,247,64,-1,245,64,66,-1,244,248,159,-1,159,248,249,-1,159,249,157,-1,157,249,250,-1,250,251,157,-1,157,251,252,-1,157,252,253,-1,253,252,254,-1,253,254,255,-1,255,254,242,-1,255,242,72,-1,72,242,34,-1,57,56,164,-1,164,56,256,-1,164,256,163,-1,163,256,257,-1,258,259,260,-1,10,11,261,-1,261,11,175,-1,261,175,260,-1,260,175,163,-1,260,163,258,-1,258,163,257,-1,258,257,262,-1,97,95,263,-1,80,264,81,-1,81,264,265,-1,4,6,266,-1,265,15,81,-1,81,15,13,-1,81,13,83,-1,263,267,97,-1,97,267,4,-1,97,4,99,-1,99,4,266,-1,99,266,101,-1,101,266,268,-1,13,269,83,-1,83,269,259,-1,83,259,85,-1,259,258,85,-1,85,258,262,-1,85,262,87,-1,87,262,270,-1,87,270,89,-1,89,270,271,-1,89,271,92,-1,92,271,263,-1,92,263,93,-1,93,263,95,-1,45,211,46,-1,46,211,76,-1,133,153,44,-1,44,153,212,-1,44,212,45,-1,45,212,211,-1,198,235,58,-1,58,235,59,-1,235,198,117,-1,117,198,179,-1,117,179,110,-1,110,179,155,-1,
        ]
    }
}
Shape{
    appearance Appearance {
        material  Material 	{
            diffuseColor 0.7529411764705882 0.7529411764705882 0.7529411764705882
            specularColor 0.3764705882352941 0.3764705882352941 0.3764705882352941
            ambientIntensity 0.2
            transparency 0
            shininess 0.5
        }
    }
    geometry IndexedFaceSet {
        ccw TRUE
        solid FALSE
        coord DEF co Coordinate {
            point [
                1.5658 -0.315 0.3543, 1.6417 -0.315 0.3543, 1.5658 -0.315 0.3296, 1.6417 -0.315 0.3296, 1.6417 -0.1912 0.3543, -1.5572 -0.315 0.3296, -1.6417 -0.315 0.3296, -1.5572 -0.315 0.3543, -1.6417 -0.315 0.3543, -1.6417 -0.2371 0.3543, -1.6417 -0.2371 0.3543
            ]
        }
        coordIndex [
            0,1,2,-1,2,1,3,-1,4,1,0,-1,5,6,7,-1,7,6,8,-1,7,8,9,-1,
        ]
    }
}
Shape{
    appearance Appearance {
        material  Material 	{
            diffuseColor 0.796078431372549 0.8235294117647058 0.9372549019607843
            specularColor 0.396078431372549 0.4117647058823529 0.4666666666666667
            ambientIntensity 0.2
            transparency 0
            shininess 0.5
        }
    }
    geometry IndexedFaceSet {
        ccw TRUE
        solid FALSE
        coord DEF co Coordinate {
            point [
                -1.7598 -0.315 0.2157, -1.6417 -0.315 0.2157, -1.7598 -0.0315 0.2157, -1.6417 -0.0315 0.2157, -1.6417 -0.0315 0.2362, -1.659 -0.0315 0.2362, -1.659 -0.0315 0.3296, -1.7598 -0.0315 0.3296, 1.6417 -0.0315 0.2362, 1.6417 -0.0315 0.2157, 1.66 -0.0315 0.2362, 1.7598 -0.0315 0.2157, 1.66 -0.0315 0.3296, 1.7598 -0.0315 0.3296, 1.7598 -0.315 0.2157, 1.6417 -0.315 0.2157, -1.7598 -0.0932 0.0696, -1.7598 -0.0932 -0.1481, -1.6417 -0.0932 0.0696, -1.6417 -0.0932 -0.1481, -1.7598 -0.0962 0.0847, -1.6417 -0.0962 0.0847, -1.7598 -0.1048 0.0974, -1.6417 -0.1048 0.0974, -1.7598 -0.1175 0.106, -1.6417 -0.1175 0.106, -1.7598 -0.1326 0.109, -1.6417 -0.1326 0.109, -1.7598 -0.1736 0.109, -1.6417 -0.1736 0.109, -1.7598 -0.1887 0.106, -1.6417 -0.1887 0.106, -1.7598 -0.2014 0.0974, -1.6417 -0.2014 0.0974, -1.7598 -0.21 0.0847, -1.6417 -0.21 0.0847, -1.7598 -0.213 0.0696, -1.6417 -0.213 0.0696, -1.7598 -0.213 -0.1481, -1.6417 -0.213 -0.1481, -1.7598 -0.21 -0.1631, -1.6417 -0.21 -0.1631, -1.7598 -0.2014 -0.1759, -1.6417 -0.2014 -0.1759, -1.7598 -0.1887 -0.1844, -1.6417 -0.1887 -0.1844, -1.7598 -0.1736 -0.1874, -1.6417 -0.1736 -0.1874, -1.7598 -0.1326 -0.1874, -1.6417 -0.1326 -0.1874, -1.7598 -0.1175 -0.1844, -1.6417 -0.1175 -0.1844, -1.7598 -0.1048 -0.1759, -1.6417 -0.1048 -0.1759, -1.7598 -0.0962 -0.1631, -1.6417 -0.0962 -0.1631, 1.6417 -0.1326 -0.1874, 1.7598 -0.1326 -0.1874, 1.6417 -0.1175 -0.1844, 1.7598 -0.1175 -0.1844, 1.6417 -0.1048 -0.1759, 1.7598 -0.1048 -0.1759, 1.6417 -0.0962 -0.1631, 1.7598 -0.0962 -0.1631, 1.6417 -0.0932 -0.1481, 1.7598 -0.0932 -0.1481, 1.7598 -0.1736 -0.1874, 1.6417 -0.1736 -0.1874, 1.6417 -0.213 -0.1481, 1.7598 -0.213 -0.1481, 1.6417 -0.21 -0.1631, 1.7598 -0.21 -0.1631, 1.6417 -0.2014 -0.1759, 1.7598 -0.2014 -0.1759, 1.6417 -0.1887 -0.1844, 1.7598 -0.1887 -0.1844, 1.7598 -0.213 0.0696, 1.6417 -0.213 0.0696, 1.6417 -0.1736 0.109, 1.7598 -0.1736 0.109, 1.6417 -0.1887 0.106, 1.7598 -0.1887 0.106, 1.6417 -0.2014 0.0974, 1.7598 -0.2014 0.0974, 1.6417 -0.21 0.0847, 1.7598 -0.21 0.0847, 1.7598 -0.1326 0.109, 1.6417 -0.1326 0.109, 1.6417 -0.0932 0.0696, 1.7598 -0.0932 0.0696, 1.6417 -0.0962 0.0847, 1.7598 -0.0962 0.0847, 1.6417 -0.1048 0.0974, 1.7598 -0.1048 0.0974, 1.6417 -0.1175 0.106, 1.7598 -0.1175 0.106, -0.7263 0.622 0.0, -0.7263 0.622 0.213, -0.7263 0.5039 0.0, -0.7263 0.5039 0.213, -0.3621 0.622 0.213, -0.3621 0.622 0.0, -0.3621 0.5039 0.213, -0.3621 0.5039 0.0, -0.6597 0.5401 0.3995, -0.6597 0.622 0.3995, -0.6597 0.5401 0.5284, -0.6597 0.622 0.5284, -0.4331 0.5401 0.3995, -0.4331 0.622 0.3995, -0.4331 0.5401 0.5284, -0.4331 0.622 0.5284, 0.6597 0.5401 0.3995, 0.6597 0.622 0.3995, 0.4331 0.5401 0.3995, 0.4331 0.622 0.3995, 0.6597 0.5401 0.5284, 0.6597 0.622 0.5284, 0.4331 0.5401 0.5284, 0.4331 0.622 0.5284, 0.7263 0.622 0.213, 0.7263 0.622 0.0, 0.7263 0.5039 0.213, 0.7263 0.5039 0.0, 0.3621 0.622 0.213, 0.3621 0.5039 0.213, 0.3621 0.622 0.0, 0.3621 0.5039 0.0, 0.3621 0.5039 0.0
            ]
        }
        coordIndex [
            0,1,2,-1,2,1,3,-1,3,4,5,-1,6,7,5,-1,5,7,2,-1,5,2,3,-1,8,9,10,-1,10,9,11,-1,10,11,12,-1,12,11,13,-1,11,9,14,-1,14,9,15,-1,16,17,18,-1,18,17,19,-1,16,18,20,-1,20,18,21,-1,20,21,22,-1,22,21,23,-1,22,23,24,-1,24,23,25,-1,24,25,26,-1,26,25,27,-1,28,26,29,-1,29,26,27,-1,28,29,30,-1,30,29,31,-1,30,31,32,-1,32,31,33,-1,32,33,34,-1,34,33,35,-1,34,35,36,-1,36,35,37,-1,38,36,39,-1,39,36,37,-1,38,39,40,-1,40,39,41,-1,40,41,42,-1,42,41,43,-1,42,43,44,-1,44,43,45,-1,44,45,46,-1,46,45,47,-1,48,46,49,-1,49,46,47,-1,48,49,50,-1,50,49,51,-1,50,51,52,-1,52,51,53,-1,52,53,54,-1,54,53,55,-1,54,55,17,-1,17,55,19,-1,56,57,58,-1,58,57,59,-1,58,59,60,-1,60,59,61,-1,60,61,62,-1,62,61,63,-1,62,63,64,-1,64,63,65,-1,66,57,67,-1,67,57,56,-1,68,69,70,-1,70,69,71,-1,70,71,72,-1,72,71,73,-1,72,73,74,-1,74,73,75,-1,74,75,67,-1,67,75,66,-1,76,69,77,-1,77,69,68,-1,78,79,80,-1,80,79,81,-1,80,81,82,-1,82,81,83,-1,82,83,84,-1,84,83,85,-1,84,85,77,-1,77,85,76,-1,86,79,87,-1,87,79,78,-1,88,89,90,-1,90,89,91,-1,90,91,92,-1,92,91,93,-1,92,93,94,-1,94,93,95,-1,94,95,87,-1,87,95,86,-1,65,89,64,-1,64,89,88,-1,96,97,98,-1,98,97,99,-1,100,101,102,-1,102,101,103,-1,97,100,99,-1,99,100,102,-1,104,105,106,-1,106,105,107,-1,108,109,104,-1,104,109,105,-1,110,111,108,-1,108,111,109,-1,106,107,110,-1,110,107,111,-1,112,113,114,-1,114,113,115,-1,116,117,112,-1,112,117,113,-1,118,119,116,-1,116,119,117,-1,114,115,118,-1,118,115,119,-1,120,121,122,-1,122,121,123,-1,124,120,125,-1,125,120,122,-1,126,124,127,-1,127,124,125,-1,
        ]
    }
}
Shape{
    appearance Appearance {
        material  Material 	{
            diffuseColor 0.14901960784313725 0.14901960784313725 0.14901960784313725
            specularColor 0.07450980392156863 0.07450980392156863 0.07450980392156863
            ambientIntensity 0.2
            transparency 0
            shininess 0.5
        }
    }
    geometry IndexedFaceSet {
        ccw TRUE
        solid FALSE
        coord DEF co Coordinate {
            point [
                0.4331 0.5401 0.5284, 0.6597 0.5401 0.5284, 0.4331 0.5401 0.3995, 0.6597 0.5401 0.3995, -0.4331 0.5401 0.5284, -0.4331 0.5401 0.3995, -0.6597 0.5401 0.5284, -0.6597 0.5401 0.3995, -1.3133 -0.5397 0.2362, -0.8366 -0.5532 0.2362, -1.3133 -0.5397 0.3296, -0.3937 -0.5656 0.2362, -0.2712 -0.5691 0.2362, -0.1235 -0.5733 0.2362, 0.9364 -0.6031 0.3296, -0.0084 -0.5765 0.2362, 0.081 -0.579 0.2362, 0.215 -0.5828 0.2362, 0.2885 -0.5849 0.2362, 0.3937 -0.5878 0.2362, 0.8366 -0.6003 0.2362, 0.9364 -0.6031 0.2362, 1.4667 -0.4763 0.2362, 1.4667 -0.4763 0.3296, 1.4304 -0.485 0.2362, 1.5595 -0.3252 0.2362, 1.66 -0.1614 0.2362, 1.66 -0.1614 0.3296, 1.6417 -0.1912 0.3543, 1.5658 -0.315 0.3543, 1.6417 -0.1912 0.3296, 1.5658 -0.315 0.3296, -1.5572 -0.315 0.3296, -1.5572 -0.315 0.3543, -1.6417 -0.2371 0.3543, -1.672 -0.2092 0.3296, -1.672 -0.2092 0.2362, -1.6417 -0.2371 0.3296, -1.5461 -0.3252 0.2362, -1.4648 -0.4001 1.9685, -1.5125 -0.3562 1.9685, -1.4648 -0.4001 0.3296, -1.5125 -0.3562 0.3296, -1.659 -0.0315 0.2362, -1.659 -0.0315 0.3296, 1.66 -0.0315 0.2362, 1.66 -0.0315 0.3296, -1.3901 0.4492 0.2362, -1.5063 0.3626 0.2362, -1.3901 0.4492 1.9685, -1.5063 0.3626 1.9685, 1.2375 -0.0237 2.4803, 1.2375 -0.0237 1.9685, 1.2375 0.0237 2.4803, 1.2375 0.0237 1.9685, -1.2375 0.0237 2.4803, -1.2375 0.0237 1.9685, -1.2375 -0.0237 2.4803, -1.2375 -0.0237 1.9685, 1.1194 0.0631 2.5591, -1.1194 0.0631 2.5591, 1.1588 -0.0237 2.5591, 1.1575 -0.0339 2.5591, 1.1194 -0.0631 2.5591, 1.1391 -0.0578 2.5591, 1.1473 -0.0515 2.5591, 1.1535 -0.0434 2.5591, -1.1588 0.0237 2.5591, -1.1194 -0.0631 2.5591, -1.1588 -0.0237 2.5591, -1.1296 -0.0617 2.5591, -1.1575 0.0339 2.5591, -1.1391 0.0578 2.5591, -1.1473 0.0515 2.5591, -1.1535 0.0434 2.5591, -1.1575 -0.0339 2.5591, -1.1535 -0.0434 2.5591, -1.1473 -0.0515 2.5591, 1.1296 -0.0617 2.5591, 1.1391 0.0578 2.5591, 1.1575 0.0339 2.5591, 1.1473 0.0515 2.5591, 1.1535 0.0434 2.5591, 1.1588 0.0237 2.5591, 1.1296 0.0617 2.5591, -1.1296 0.0617 2.5591, -1.1391 -0.0578 2.5591, 1.1194 -0.1418 2.4803, 1.1194 -0.1418 1.9685, 1.15 -0.1378 1.9685, 1.15 -0.1378 2.4803, 1.1785 -0.126 1.9685, 1.1785 -0.126 2.4803, 1.2029 -0.1072 1.9685, 1.2029 -0.1072 2.4803, 1.2217 -0.0827 1.9685, 1.2217 -0.0827 2.4803, 1.2335 -0.0543 1.9685, 1.2335 -0.0543 2.4803, 1.2335 0.0543 1.9685, 1.2335 0.0543 2.4803, 1.2217 0.0827 1.9685, 1.2217 0.0827 2.4803, 1.2029 0.1072 1.9685, 1.2029 0.1072 2.4803, 1.1785 0.126 1.9685, 1.1785 0.126 2.4803, 1.15 0.1378 1.9685, 1.15 0.1378 2.4803, 1.1194 0.1418 1.9685, 1.1194 0.1418 2.4803, -1.2335 -0.0543 1.9685, -1.2335 -0.0543 2.4803, -1.2217 -0.0827 1.9685, -1.2217 -0.0827 2.4803, -1.2029 -0.1072 1.9685, -1.2029 -0.1072 2.4803, -1.1785 -0.126 1.9685, -1.1785 -0.126 2.4803, -1.15 -0.1378 1.9685, -1.15 -0.1378 2.4803, -1.1194 -0.1418 1.9685, -1.1194 -0.1418 2.4803, -1.1194 0.1418 2.4803, -1.1194 0.1418 1.9685, -1.15 0.1378 1.9685, -1.15 0.1378 2.4803, -1.1785 0.126 1.9685, -1.1785 0.126 2.4803, -1.2029 0.1072 1.9685, -1.2029 0.1072 2.4803, -1.2217 0.0827 1.9685, -1.2217 0.0827 2.4803, -1.2335 0.0543 1.9685, -1.2335 0.0543 2.4803, -1.2335 0.0543 2.4803
            ]
        }
        coordIndex [
            0,1,2,-1,2,1,3,-1,4,5,6,-1,6,5,7,-1,8,9,10,-1,10,9,11,-1,11,12,10,-1,10,12,13,-1,10,13,14,-1,14,13,15,-1,15,16,14,-1,14,16,17,-1,14,17,18,-1,18,19,14,-1,14,19,20,-1,14,20,21,-1,22,23,24,-1,24,23,14,-1,24,14,21,-1,25,26,27,-1,28,29,30,-1,30,29,31,-1,23,22,31,-1,31,22,25,-1,31,25,30,-1,30,25,27,-1,32,33,34,-1,35,36,37,-1,37,36,38,-1,39,40,41,-1,41,40,42,-1,10,41,8,-1,8,41,42,-1,8,42,38,-1,38,42,32,-1,38,32,37,-1,37,32,34,-1,43,36,44,-1,44,36,35,-1,26,45,27,-1,27,45,46,-1,47,48,49,-1,49,48,50,-1,51,52,53,-1,53,52,54,-1,55,56,57,-1,57,56,58,-1,59,60,61,-1,62,61,63,-1,64,65,66,-1,63,67,68,-1,68,67,69,-1,68,69,70,-1,63,61,67,-1,67,61,60,-1,67,60,71,-1,72,73,74,-1,75,76,77,-1,62,63,66,-1,66,63,78,-1,66,78,64,-1,79,80,81,-1,81,80,82,-1,61,83,59,-1,59,83,80,-1,59,80,84,-1,84,80,79,-1,71,60,74,-1,74,60,85,-1,74,85,72,-1,75,77,69,-1,69,77,86,-1,69,86,70,-1,87,88,89,-1,87,89,90,-1,90,89,91,-1,90,91,92,-1,92,91,93,-1,92,93,94,-1,94,93,95,-1,94,95,96,-1,96,95,97,-1,96,97,98,-1,98,97,52,-1,98,52,51,-1,53,54,99,-1,53,99,100,-1,100,99,101,-1,100,101,102,-1,102,101,103,-1,102,103,104,-1,104,103,105,-1,104,105,106,-1,106,105,107,-1,106,107,108,-1,108,107,109,-1,108,109,110,-1,57,58,111,-1,57,111,112,-1,112,111,113,-1,112,113,114,-1,114,113,115,-1,114,115,116,-1,116,115,117,-1,116,117,118,-1,118,117,119,-1,118,119,120,-1,120,119,121,-1,120,121,122,-1,123,124,125,-1,123,125,126,-1,126,125,127,-1,126,127,128,-1,128,127,129,-1,128,129,130,-1,130,129,131,-1,130,131,132,-1,132,131,133,-1,132,133,134,-1,134,133,56,-1,134,56,55,-1,
        ]
    }
}
Shape{
    appearance Appearance {
        material  Material 	{
            diffuseColor 0.8274509803921568 0.6666666666666666 0.12941176470588237
            specularColor 0.4117647058823529 0.3333333333333333 0.06666666666666667
            ambientIntensity 0.2
            transparency 0
            shininess 0.5
        }
    }
    geometry IndexedFaceSet {
        ccw TRUE
        solid FALSE
        coord DEF co Coordinate {
            point [
                -0.9646 -0.0472 -0.3543, -0.9646 -0.0472 0.2362, -1.2008 -0.0472 -0.3543, -1.2008 -0.0472 0.2362, -0.9646 0.0118 -0.3543, -0.9646 0.0118 0.2362, -1.2008 0.0118 -0.3543, -1.2008 0.0118 0.2362, 0.9646 -0.0472 -0.3543, 0.9646 -0.0472 0.2362, 0.9646 0.0118 -0.3543, 0.9646 0.0118 0.2362, 1.2008 -0.0472 -0.3543, 1.2008 -0.0472 0.2362, 1.2008 0.0118 -0.3543, 1.2008 0.0118 0.2362, -0.7087 0.0118 -0.3543, -0.7087 0.0118 0.2362, -0.4882 0.0118 -0.3543, -0.4882 0.0118 0.2362, -0.7087 -0.0472 -0.3543, -0.7087 -0.0472 0.2362, -0.4882 -0.0472 -0.3543, -0.4882 -0.0472 0.2362, 0.4882 0.0118 -0.3543, 0.4882 0.0118 0.2362, 0.7087 0.0118 -0.3543, 0.7087 0.0118 0.2362, 0.4882 -0.0472 -0.3543, 0.4882 -0.0472 0.2362, 0.7087 -0.0472 -0.3543, 0.7087 -0.0472 0.2362, -0.0945 0.0118 0.2362, -0.0945 0.0118 -0.3543, -0.1235 0.0118 0.2362, -0.2992 0.0118 -0.3543, -0.2712 0.0118 0.2362, -0.2992 0.0118 0.2362, -0.2992 -0.0472 -0.3543, -0.2992 -0.0472 0.2362, -0.2712 -0.0472 0.2362, -0.0945 -0.0472 -0.3543, -0.1235 -0.0472 0.2362, -0.0945 -0.0472 0.2362, 0.2992 0.0118 -0.3543, 0.0945 0.0118 -0.3543, 0.0945 0.0118 0.2362, 0.215 0.0118 0.2362, 0.2885 0.0118 0.2362, 0.2992 0.0118 0.2362, 0.0945 -0.0472 -0.3543, 0.0945 -0.0472 0.2362, 0.215 -0.0472 0.2362, 0.2992 -0.0472 -0.3543, 0.2885 -0.0472 0.2362, 0.2992 -0.0472 0.2362, 0.2992 -0.0472 0.2362
            ]
        }
        coordIndex [
            0,1,2,-1,2,1,3,-1,4,5,0,-1,0,5,1,-1,6,7,4,-1,4,7,5,-1,2,3,6,-1,6,3,7,-1,0,2,4,-1,4,2,6,-1,8,9,10,-1,10,9,11,-1,12,13,8,-1,8,13,9,-1,14,15,12,-1,12,15,13,-1,10,11,14,-1,14,11,15,-1,8,10,12,-1,12,10,14,-1,16,17,18,-1,18,17,19,-1,20,21,16,-1,16,21,17,-1,22,23,20,-1,20,23,21,-1,18,19,22,-1,22,19,23,-1,16,18,20,-1,20,18,22,-1,24,25,26,-1,26,25,27,-1,28,29,24,-1,24,29,25,-1,30,31,28,-1,28,31,29,-1,26,27,30,-1,30,27,31,-1,24,26,28,-1,28,26,30,-1,32,33,34,-1,34,33,35,-1,34,35,36,-1,36,35,37,-1,38,39,35,-1,35,39,37,-1,39,38,40,-1,40,38,41,-1,40,41,42,-1,42,41,43,-1,33,32,41,-1,41,32,43,-1,35,33,38,-1,38,33,41,-1,44,45,46,-1,46,47,44,-1,44,47,48,-1,44,48,49,-1,50,51,45,-1,45,51,46,-1,51,50,52,-1,52,50,53,-1,52,53,54,-1,54,53,55,-1,44,49,53,-1,53,49,55,-1,45,44,50,-1,50,44,53,-1,
        ]
    }
}
Shape{
    appearance Appearance {
        material  Material 	{
            diffuseColor 0.7529411764705882 0.7529411764705882 0.7529411764705882
            specularColor 0.3764705882352941 0.3764705882352941 0.3764705882352941
            ambientIntensity 0.2
            transparency 0
            shininess 0.5
        }
    }
    geometry IndexedFaceSet {
        ccw TRUE
        solid FALSE
        coord DEF co Coordinate {
            point [
                -0.1871 0.2716 0.2756, -0.1886 0.2716 0.2756, -0.1871 0.2716 0.2362, -0.1886 0.2716 0.2362, -0.2431 0.1534 0.2756, -0.2431 0.1534 0.2362, -0.2316 0.1534 0.2756, -0.2316 0.1534 0.2362, -0.2141 0.1913 0.2756, -0.2141 0.1913 0.2362, -0.1606 0.1913 0.2756, -0.1606 0.1913 0.2362, -0.1426 0.1534 0.2756, -0.1426 0.1534 0.2362, -0.131 0.1534 0.2756, -0.131 0.1534 0.2362, -0.2085 0.2034 0.2756, -0.1663 0.2034 0.2756, -0.1877 0.2485 0.2756, -0.2085 0.2034 0.2362, -0.1877 0.2485 0.2362, -0.1663 0.2034 0.2362, -0.0556 0.1534 0.2756, -0.019 0.1534 0.2756, -0.0556 0.1534 0.2362, -0.019 0.1534 0.2362, -0.019 0.2716 0.2756, -0.019 0.2716 0.2362, -0.0428 0.2716 0.2756, -0.0428 0.2716 0.2362, -0.0803 0.2673 0.2756, -0.0803 0.2673 0.2362, -0.0618 0.2708 0.2362, -0.0618 0.2708 0.2756, -0.1159 0.211 0.2756, -0.1159 0.211 0.2362, -0.1137 0.2296 0.2362, -0.1137 0.2296 0.2756, -0.1016 0.253 0.2362, -0.1016 0.253 0.2756, -0.0683 0.1541 0.2362, -0.0683 0.1541 0.2756, -0.0921 0.1617 0.2362, -0.0921 0.1617 0.2756, -0.1092 0.1813 0.2362, -0.1092 0.1813 0.2756, -0.1034 0.1963 0.2756, -0.0938 0.179 0.2756, -0.0769 0.1686 0.2756, -0.0601 0.166 0.2756, -0.0431 0.1656 0.2756, -0.0296 0.1656 0.2756, -0.0296 0.2594 0.2756, -0.0379 0.2594 0.2756, -0.0562 0.2589 0.2756, -0.0742 0.2561 0.2756, -0.0873 0.2498 0.2756, -0.1001 0.2346 0.2756, -0.1053 0.211 0.2756, -0.0296 0.2594 0.2362, -0.0296 0.1656 0.2362, -0.0379 0.2594 0.2362, -0.0562 0.2589 0.2362, -0.0742 0.2561 0.2362, -0.0873 0.2498 0.2362, -0.1001 0.2346 0.2362, -0.1053 0.211 0.2362, -0.1034 0.1963 0.2362, -0.0938 0.179 0.2362, -0.0769 0.1686 0.2362, -0.0601 0.166 0.2362, -0.0431 0.1656 0.2362, 0.0688 0.1534 0.2756, 0.0688 0.2716 0.2756, 0.0688 0.1534 0.2362, 0.0688 0.2716 0.2362, 0.0022 0.2716 0.2756, 0.0022 0.2716 0.2362, 0.0022 0.2594 0.2756, 0.0022 0.2594 0.2362, 0.0582 0.2594 0.2756, 0.0582 0.2594 0.2362, 0.0582 0.2231 0.2756, 0.0582 0.2231 0.2362, 0.0022 0.2231 0.2756, 0.0022 0.2231 0.2362, 0.0022 0.211 0.2756, 0.0022 0.211 0.2362, 0.0582 0.211 0.2756, 0.0582 0.211 0.2362, 0.0582 0.1656 0.2756, 0.0582 0.1656 0.2362, 0.0022 0.1656 0.2756, 0.0022 0.1656 0.2362, 0.0022 0.1534 0.2756, 0.0022 0.1534 0.2362, 0.0931 0.2499 0.2756, 0.0931 0.2499 0.2362, 0.0968 0.2545 0.2362, 0.0968 0.2545 0.2756, 0.1037 0.261 0.2362, 0.1037 0.261 0.2756, 0.1158 0.2685 0.2362, 0.1158 0.2685 0.2756, 0.1446 0.2746 0.2362, 0.1446 0.2746 0.2756, 0.1023 0.2428 0.2756, 0.1023 0.2428 0.2362, 0.1453 0.2625 0.2756, 0.1453 0.2625 0.2362, 0.1404 0.2623 0.2362, 0.1404 0.2623 0.2756, 0.1326 0.2612 0.2362, 0.1326 0.2612 0.2756, 0.1215 0.2576 0.2362, 0.1215 0.2576 0.2756, 0.1975 0.2124 0.2756, 0.1975 0.2124 0.2362, 0.1974 0.2171 0.2362, 0.1974 0.2171 0.2756, 0.1897 0.2395 0.2362, 0.1897 0.2395 0.2756, 0.1714 0.256 0.2362, 0.1714 0.256 0.2756, 0.1445 0.1625 0.2756, 0.1445 0.1625 0.2362, 0.152 0.1629 0.2362, 0.152 0.1629 0.2756, 0.1751 0.171 0.2362, 0.1751 0.171 0.2756, 0.1914 0.188 0.2362, 0.1914 0.188 0.2756, 0.1023 0.1822 0.2756, 0.1023 0.1822 0.2362, 0.1212 0.1675 0.2362, 0.1212 0.1675 0.2756, 0.0931 0.1752 0.2756, 0.0931 0.1752 0.2362, 0.1445 0.1504 0.2756, 0.1445 0.1504 0.2362, 0.1385 0.1506 0.2362, 0.1385 0.1506 0.2756, 0.1295 0.1519 0.2362, 0.1292 0.152 0.2756, 0.1292 0.152 0.2362, 0.1157 0.1566 0.2362, 0.1157 0.1566 0.2756, 0.1529 0.1519 0.2362, 0.1712 0.1552 0.2756, 0.1712 0.1552 0.2362, 0.1827 0.1615 0.2756, 0.1827 0.1615 0.2362, 0.1894 0.1671 0.2756, 0.1894 0.1671 0.2362, 0.1932 0.1711 0.2756, 0.1932 0.1711 0.2362, 0.2081 0.2132 0.2756, 0.2081 0.2132 0.2362, 0.2045 0.1907 0.2362, 0.2045 0.1907 0.2756, 0.1498 0.2744 0.2362, 0.1498 0.2744 0.2756, 0.1803 0.2647 0.2362, 0.1803 0.2647 0.2756, 0.2005 0.2434 0.2362, 0.2005 0.2434 0.2756, 0.2778 0.1534 0.2756, 0.2778 0.2716 0.2756, 0.2778 0.1534 0.2362, 0.2778 0.2716 0.2362, 0.2672 0.2716 0.2756, 0.2672 0.2716 0.2362, 0.2672 0.1656 0.2756, 0.2672 0.1656 0.2362, 0.2218 0.1656 0.2756, 0.2218 0.1656 0.2362, 0.2218 0.1534 0.2756, 0.2218 0.1534 0.2362, 0.2218 0.1534 0.2362
            ]
        }
        coordIndex [
            0,1,2,-1,2,1,3,-1,1,4,3,-1,3,4,5,-1,4,6,5,-1,5,6,7,-1,6,8,7,-1,7,8,9,-1,8,10,9,-1,9,10,11,-1,10,12,11,-1,11,12,13,-1,12,14,13,-1,13,14,15,-1,14,0,15,-1,15,0,2,-1,16,4,1,-1,0,17,1,-1,1,17,18,-1,1,18,16,-1,14,12,10,-1,6,4,8,-1,8,4,16,-1,8,16,10,-1,10,16,17,-1,10,17,14,-1,14,17,0,-1,16,18,19,-1,19,18,20,-1,17,16,21,-1,21,16,19,-1,18,17,20,-1,20,17,21,-1,22,23,24,-1,24,23,25,-1,23,26,25,-1,25,26,27,-1,26,28,27,-1,27,28,29,-1,30,31,32,-1,30,32,33,-1,33,32,29,-1,33,29,28,-1,34,35,36,-1,34,36,37,-1,37,36,38,-1,37,38,39,-1,39,38,31,-1,39,31,30,-1,22,24,40,-1,22,40,41,-1,41,40,42,-1,41,42,43,-1,43,42,44,-1,43,44,45,-1,45,44,35,-1,45,35,34,-1,46,47,43,-1,43,47,48,-1,43,48,41,-1,41,48,49,-1,41,49,22,-1,22,49,50,-1,22,50,23,-1,23,50,51,-1,23,51,26,-1,26,51,52,-1,26,52,28,-1,28,52,53,-1,28,53,33,-1,33,53,54,-1,33,54,30,-1,30,54,55,-1,30,55,39,-1,39,55,56,-1,39,56,37,-1,37,56,57,-1,37,57,34,-1,34,57,58,-1,34,58,45,-1,45,58,46,-1,45,46,43,-1,52,51,59,-1,59,51,60,-1,53,52,61,-1,61,52,59,-1,53,61,62,-1,53,62,54,-1,54,62,63,-1,54,63,55,-1,55,63,64,-1,55,64,56,-1,56,64,65,-1,56,65,57,-1,57,65,66,-1,57,66,58,-1,58,66,67,-1,58,67,46,-1,46,67,68,-1,46,68,47,-1,47,68,69,-1,47,69,48,-1,48,69,70,-1,48,70,49,-1,49,70,71,-1,49,71,50,-1,51,50,60,-1,60,50,71,-1,72,73,74,-1,74,73,75,-1,73,76,75,-1,75,76,77,-1,76,78,77,-1,77,78,79,-1,78,80,79,-1,79,80,81,-1,80,82,81,-1,81,82,83,-1,82,84,83,-1,83,84,85,-1,84,86,85,-1,85,86,87,-1,86,88,87,-1,87,88,89,-1,88,90,89,-1,89,90,91,-1,90,92,91,-1,91,92,93,-1,92,94,93,-1,93,94,95,-1,94,72,95,-1,95,72,74,-1,72,94,92,-1,92,90,72,-1,72,90,88,-1,72,88,73,-1,78,76,80,-1,80,76,73,-1,80,73,82,-1,82,73,88,-1,82,88,84,-1,84,88,86,-1,96,97,98,-1,96,98,99,-1,99,98,100,-1,99,100,101,-1,101,100,102,-1,101,102,103,-1,103,102,104,-1,103,104,105,-1,96,106,97,-1,97,106,107,-1,108,109,110,-1,108,110,111,-1,111,110,112,-1,111,112,113,-1,113,112,114,-1,113,114,115,-1,115,114,107,-1,115,107,106,-1,116,117,118,-1,116,118,119,-1,119,118,120,-1,119,120,121,-1,121,120,122,-1,121,122,123,-1,123,122,109,-1,123,109,108,-1,124,125,126,-1,124,126,127,-1,127,126,128,-1,127,128,129,-1,129,128,130,-1,129,130,131,-1,131,130,117,-1,131,117,116,-1,132,133,134,-1,132,134,135,-1,135,134,125,-1,135,125,124,-1,132,136,133,-1,133,136,137,-1,138,139,140,-1,138,140,141,-1,141,140,142,-1,141,142,143,-1,142,144,143,-1,143,144,145,-1,143,145,146,-1,146,145,137,-1,146,137,136,-1,139,138,147,-1,147,138,148,-1,147,148,149,-1,149,148,150,-1,149,150,151,-1,151,150,152,-1,151,152,153,-1,153,152,154,-1,153,154,155,-1,156,157,158,-1,156,158,159,-1,159,158,155,-1,159,155,154,-1,105,104,160,-1,105,160,161,-1,161,160,162,-1,161,162,163,-1,163,162,164,-1,163,164,165,-1,165,164,157,-1,165,157,156,-1,136,132,146,-1,146,132,135,-1,156,159,131,-1,131,159,129,-1,129,159,154,-1,129,154,152,-1,106,96,99,-1,106,99,115,-1,115,99,101,-1,115,101,103,-1,152,150,129,-1,129,150,148,-1,129,148,127,-1,127,148,138,-1,127,138,124,-1,124,138,141,-1,124,141,135,-1,135,141,143,-1,135,143,146,-1,131,116,156,-1,156,116,119,-1,156,119,165,-1,165,119,121,-1,165,121,163,-1,163,121,123,-1,163,123,161,-1,161,123,108,-1,161,108,105,-1,105,108,111,-1,105,111,103,-1,103,111,113,-1,103,113,115,-1,166,167,168,-1,168,167,169,-1,167,170,169,-1,169,170,171,-1,170,172,171,-1,171,172,173,-1,172,174,173,-1,173,174,175,-1,174,176,175,-1,175,176,177,-1,176,166,177,-1,177,166,168,-1,170,167,172,-1,172,167,166,-1,172,166,174,-1,174,166,176,-1,
        ]
    }
}
Shape{
    appearance Appearance {
        material  Material 	{
            diffuseColor 0.14901960784313725 0.14901960784313725 0.14901960784313725
            specularColor 0.07450980392156863 0.07450980392156863 0.07450980392156863
            ambientIntensity 0.2
            transparency 0
            shininess 0.5
        }
    }
    geometry IndexedFaceSet {
        ccw TRUE
        solid FALSE
        coord DEF co Coordinate {
            point [
                -0.2085 0.2034 0.2362, -0.1877 0.2485 0.2362, -0.1663 0.2034 0.2362, -0.0296 0.2594 0.2362, -0.0296 0.1656 0.2362, -0.0379 0.2594 0.2362, -0.0431 0.1656 0.2362, -0.0562 0.2589 0.2362, -0.0601 0.166 0.2362, -0.0742 0.2561 0.2362, -0.0769 0.1686 0.2362, -0.0938 0.179 0.2362, -0.1034 0.1963 0.2362, -0.1053 0.211 0.2362, -0.1001 0.2346 0.2362, -0.0873 0.2498 0.2362, -0.0873 0.2498 0.2362
            ]
        }
        coordIndex [
            0,1,2,-1,3,4,5,-1,5,4,6,-1,5,6,7,-1,7,6,8,-1,7,8,9,-1,10,11,8,-1,8,11,12,-1,8,12,13,-1,13,14,8,-1,8,14,15,-1,8,15,9,-1,
        ]
    }
}
Shape{
    appearance Appearance {
        material  Material 	{
            diffuseColor 0.8274509803921568 0.6666666666666666 0.12941176470588237
            specularColor 0.4117647058823529 0.3333333333333333 0.06666666666666667
            ambientIntensity 0.2
            transparency 0
            shininess 0.5
        }
    }
    geometry IndexedFaceSet {
        ccw TRUE
        solid FALSE
        coord DEF co Coordinate {
            point [
                -1.0901 -0.1774 2.4409, -1.0901 -0.1418 2.4409, -1.0901 -0.1774 1.9685, -1.0901 -0.1418 1.9685, -0.9904 -0.1774 2.4409, -0.9904 -0.1774 1.9685, -0.9904 -0.1418 2.4409, -0.9904 -0.1418 1.9685, -0.5038 -0.1675 2.4409, -0.5038 -0.1418 2.4409, -0.5038 -0.1675 1.9685, -0.5038 -0.1418 1.9685, -0.3648 -0.1675 2.4409, -0.3648 -0.1675 1.9685, -0.3648 -0.1418 2.4409, -0.3648 -0.1418 1.9685, 0.2013 -0.1708 2.4409, 0.2013 -0.1418 2.4409, 0.2013 -0.1708 1.9685, 0.2013 -0.1418 1.9685, 0.3129 -0.1708 2.4409, 0.3129 -0.1708 1.9685, 0.3129 -0.1418 2.4409, 0.3129 -0.1418 1.9685, -0.2481 0.1418 2.4409, -0.2481 0.1691 2.4409, -0.2481 0.1418 1.9685, -0.2481 0.1691 1.9685, -0.1383 0.1691 2.4409, -0.1383 0.1418 2.4409, -0.1383 0.1691 1.9685, -0.1383 0.1418 1.9685, 0.4204 0.1418 2.4409, 0.4204 0.1691 2.4409, 0.4204 0.1418 1.9685, 0.4204 0.1691 1.9685, 0.5399 0.1691 2.4409, 0.5399 0.1418 2.4409, 0.5399 0.1691 1.9685, 0.5399 0.1418 1.9685, 1.0889 0.1691 2.4409, 1.0889 0.1418 2.4409, 1.0889 0.1691 1.9685, 1.0889 0.1418 1.9685, 0.9371 0.1691 2.4409, 0.9371 0.1691 1.9685, 0.9371 0.1418 2.4409, 0.9371 0.1418 1.9685, 0.9371 0.1418 1.9685
            ]
        }
        coordIndex [
            0,1,2,-1,2,1,3,-1,4,0,5,-1,5,0,2,-1,6,4,7,-1,7,4,5,-1,4,6,0,-1,0,6,1,-1,8,9,10,-1,10,9,11,-1,12,8,13,-1,13,8,10,-1,14,12,15,-1,15,12,13,-1,12,14,8,-1,8,14,9,-1,16,17,18,-1,18,17,19,-1,20,16,21,-1,21,16,18,-1,22,20,23,-1,23,20,21,-1,20,22,16,-1,16,22,17,-1,24,25,26,-1,26,25,27,-1,28,29,30,-1,30,29,31,-1,25,28,27,-1,27,28,30,-1,29,28,24,-1,24,28,25,-1,32,33,34,-1,34,33,35,-1,36,37,38,-1,38,37,39,-1,33,36,35,-1,35,36,38,-1,37,36,32,-1,32,36,33,-1,40,41,42,-1,42,41,43,-1,44,40,45,-1,45,40,42,-1,46,44,47,-1,47,44,45,-1,44,46,40,-1,40,46,41,-1,
        ]
    }
}
Shape{
    appearance Appearance {
        material  Material 	{
            diffuseColor 0.14901960784313725 0.14901960784313725 0.14901960784313725
            specularColor 0.07450980392156863 0.07450980392156863 0.07450980392156863
            ambientIntensity 0.2
            transparency 0
            shininess 0.5
        }
    }
    geometry IndexedFaceSet {
        ccw TRUE
        solid FALSE
        coord DEF co Coordinate {
            point [
                1.1588 0.0237 2.5591, 1.2375 0.0237 2.4803, 1.2335 0.0543 2.4803, 1.1575 0.0339 2.5591, 1.2217 0.0827 2.4803, 1.1535 0.0434 2.5591, 1.2029 0.1072 2.4803, 1.1473 0.0515 2.5591, 1.1785 0.126 2.4803, 1.1391 0.0578 2.5591, 1.15 0.1378 2.4803, 1.1296 0.0617 2.5591, 1.1194 0.1418 2.4803, 1.1194 0.0631 2.5591, -1.1194 0.1418 2.4803, -1.1194 0.0631 2.5591, 1.1588 -0.0237 2.5591, 1.2375 -0.0237 2.4803, -1.15 0.1378 2.4803, -1.1296 0.0617 2.5591, -1.1785 0.126 2.4803, -1.1391 0.0578 2.5591, -1.2029 0.1072 2.4803, -1.1473 0.0515 2.5591, -1.2217 0.0827 2.4803, -1.1535 0.0434 2.5591, -1.2335 0.0543 2.4803, -1.1575 0.0339 2.5591, -1.2375 0.0237 2.4803, -1.1588 0.0237 2.5591, 1.1194 -0.0631 2.5591, 1.1194 -0.1418 2.4803, 1.15 -0.1378 2.4803, 1.1296 -0.0617 2.5591, 1.1785 -0.126 2.4803, 1.1391 -0.0578 2.5591, 1.2029 -0.1072 2.4803, 1.1473 -0.0515 2.5591, 1.2217 -0.0827 2.4803, 1.1535 -0.0434 2.5591, 1.2335 -0.0543 2.4803, 1.1575 -0.0339 2.5591, -1.2375 -0.0237 2.4803, -1.1588 -0.0237 2.5591, -1.1194 -0.0631 2.5591, -1.1194 -0.1418 2.4803, -1.2335 -0.0543 2.4803, -1.1575 -0.0339 2.5591, -1.2217 -0.0827 2.4803, -1.1535 -0.0434 2.5591, -1.2029 -0.1072 2.4803, -1.1473 -0.0515 2.5591, -1.1785 -0.126 2.4803, -1.1391 -0.0578 2.5591, -1.15 -0.1378 2.4803, -1.1296 -0.0617 2.5591, -1.1296 -0.0617 2.5591
            ]
        }
        coordIndex [
            0,1,2,-1,0,2,3,-1,3,2,4,-1,3,4,5,-1,5,4,6,-1,5,6,7,-1,7,6,8,-1,7,8,9,-1,9,8,10,-1,9,10,11,-1,11,10,12,-1,11,12,13,-1,14,15,12,-1,12,15,13,-1,16,17,0,-1,0,17,1,-1,15,14,18,-1,15,18,19,-1,19,18,20,-1,19,20,21,-1,21,20,22,-1,21,22,23,-1,23,22,24,-1,23,24,25,-1,25,24,26,-1,25,26,27,-1,27,26,28,-1,27,28,29,-1,30,31,32,-1,30,32,33,-1,33,32,34,-1,33,34,35,-1,35,34,36,-1,35,36,37,-1,37,36,38,-1,37,38,39,-1,39,38,40,-1,39,40,41,-1,41,40,17,-1,41,17,16,-1,42,43,28,-1,28,43,29,-1,44,45,30,-1,30,45,31,-1,43,42,46,-1,43,46,47,-1,47,46,48,-1,47,48,49,-1,49,48,50,-1,49,50,51,-1,51,50,52,-1,51,52,53,-1,53,52,54,-1,53,54,55,-1,55,54,45,-1,55,45,44,-1,
        ]
    }
}